<svg version="1.1" xmlns="http://www.w3.org/2000/svg" viewBox="0 0 867.8557739257812 638.0749664306641" width="1735.7115478515625" height="1276.1499328613281">
  <!-- svg-source:excalidraw -->
  
  <defs>
    <style>
      @font-face {
        font-family: "Virgil";
        src: url("https://excalidraw.com/Virgil.woff2");
      }
      @font-face {
        font-family: "Cascadia";
        src: url("https://excalidraw.com/Cascadia.woff2");
      }
    </style>
  </defs>
  <g stroke-linecap="round"><g transform="translate(158.1339111328125 95.80436706542969) rotate(0 0 244.63398742675784)"><path d="M0 0 C0 81.54, 0 407.72, 0 489.27 M0 0 C0 81.54, 0 407.72, 0 489.27" stroke="#000000" stroke-width="1" fill="none"></path></g></g><g stroke-linecap="round"><g transform="translate(288.278564453125 101.35610961914062) rotate(0 0 244.63398742675784)"><path d="M0 0 C0 81.54, 0 407.72, 0 489.27 M0 0 C0 81.54, 0 407.72, 0 489.27" stroke="#000000" stroke-width="1" fill="none"></path></g></g><g stroke-linecap="round"><g transform="translate(412.45721435546875 97.2391357421875) rotate(0 0 244.63398742675784)"><path d="M0 0 C0 81.54, 0 407.72, 0 489.27 M0 0 C0 81.54, 0 407.72, 0 489.27" stroke="#000000" stroke-width="1" fill="none"></path></g></g><g stroke-linecap="round"><g transform="translate(536.5390014648438 103.67129516601562) rotate(0 0 244.63398742675784)"><path d="M0 0 C0 81.54, 0 407.72, 0 489.27 M0 0 C0 81.54, 0 407.72, 0 489.27" stroke="#000000" stroke-width="1" fill="none"></path></g></g><g stroke-linecap="round"><g transform="translate(668.0404663085938 108.17617797851562) rotate(0 0 244.63398742675784)"><path d="M0 0 C0 81.54, 0 407.72, 0 489.27 M0 0 C0 81.54, 0 407.72, 0 489.27" stroke="#000000" stroke-width="1" fill="none"></path></g></g><g stroke-linecap="round"><g transform="translate(109.73602294921875 170.95433044433594) rotate(0 328.1925354003907 0)"><path d="M0 0 C109.4 0, 546.99 0, 656.39 0 M0 0 C109.4 0, 546.99 0, 656.39 0" stroke="#000000" stroke-width="1" fill="none"></path></g></g><g stroke-linecap="round"><g transform="translate(111.86447143554682 295.7936248779297) rotate(0 328.1925354003907 0)"><path d="M0 0 C109.4 0, 546.99 0, 656.39 0 M0 0 C109.4 0, 546.99 0, 656.39 0" stroke="#000000" stroke-width="1" fill="none"></path></g></g><g stroke-linecap="round"><g transform="translate(109.95846557617188 411.6381378173828) rotate(0 328.1925354003907 0)"><path d="M0 0 C109.4 0, 546.99 0, 656.39 0 M0 0 C109.4 0, 546.99 0, 656.39 0" stroke="#000000" stroke-width="1" fill="none"></path></g></g><g stroke-linecap="round"><g transform="translate(112.15908813476562 532.7417144775391) rotate(0 328.1925354003907 0)"><path d="M0 0 C109.4 0, 546.99 0, 656.39 0 M0 0 C109.4 0, 546.99 0, 656.39 0" stroke="#000000" stroke-width="1" fill="none"></path></g></g><g stroke-linecap="round" transform="translate(206.77313232421875 133.70399475097656) rotate(0 61.302459716796875 25.202056884765625)"><path d="M0 0 C0 0, 0 0, 0 0 M0 0 C0 0, 0 0, 0 0 M-0.26 6.4 C1.1 4.83, 2.46 3.26, 4.99 0.36 M-0.26 6.4 C0.93 5.03, 2.12 3.66, 4.99 0.36 M0.13 12.04 C3.55 8.11, 6.96 4.19, 10.63 -0.03 M0.13 12.04 C3.68 7.97, 7.22 3.89, 10.63 -0.03 M-0.13 18.44 C4.72 12.86, 9.57 7.28, 15.62 0.33 M-0.13 18.44 C4.82 12.74, 9.77 7.05, 15.62 0.33 M0.27 24.08 C8.04 15.14, 15.81 6.2, 21.26 -0.07 M0.27 24.08 C5.82 17.7, 11.37 11.31, 21.26 -0.07 M0 30.48 C7.25 22.15, 14.49 13.81, 26.25 0.29 M0 30.48 C8.52 20.68, 17.04 10.89, 26.25 0.29 M-0.26 36.88 C9.44 25.73, 19.13 14.58, 31.89 -0.1 M-0.26 36.88 C6.28 29.36, 12.82 21.84, 31.89 -0.1 M0.14 42.52 C9.09 32.22, 18.04 21.93, 36.88 0.26 M0.14 42.52 C8.26 33.17, 16.39 23.83, 36.88 0.26 M-0.12 48.92 C13.93 32.75, 27.99 16.58, 42.52 -0.14 M-0.12 48.92 C10.56 36.62, 21.25 24.33, 42.52 -0.14 M2.24 52.3 C12.5 40.5, 22.76 28.69, 47.51 0.22 M2.24 52.3 C18.43 33.68, 34.61 15.05, 47.51 0.22 M7.23 52.66 C23.34 34.12, 39.45 15.59, 53.15 -0.17 M7.23 52.66 C22.91 34.62, 38.59 16.57, 53.15 -0.17 M12.87 52.26 C25.41 37.84, 37.94 23.42, 58.14 0.19 M12.87 52.26 C29.9 32.67, 46.92 13.09, 58.14 0.19 M17.86 52.62 C29.22 39.55, 40.59 26.47, 63.78 -0.21 M17.86 52.62 C33.94 34.12, 50.03 15.61, 63.78 -0.21 M23.5 52.23 C40.81 32.32, 58.11 12.41, 68.77 0.15 M23.5 52.23 C37.45 36.18, 51.4 20.13, 68.77 0.15 M28.49 52.59 C46.3 32.1, 64.1 11.61, 74.41 -0.24 M28.49 52.59 C46.42 31.96, 64.34 11.34, 74.41 -0.24 M34.13 52.19 C50.72 33.11, 67.3 14.03, 79.4 0.12 M34.13 52.19 C46.54 37.92, 58.95 23.64, 79.4 0.12 M39.12 52.55 C54.08 35.33, 69.05 18.12, 85.04 -0.28 M39.12 52.55 C53.55 35.95, 67.98 19.35, 85.04 -0.28 M44.76 52.16 C62.37 31.91, 79.97 11.65, 90.03 0.08 M44.76 52.16 C62.12 32.18, 79.49 12.21, 90.03 0.08 M49.75 52.52 C63.62 36.56, 77.49 20.61, 95.67 -0.31 M49.75 52.52 C59.55 41.24, 69.36 29.96, 95.67 -0.31 M55.39 52.12 C66.5 39.35, 77.61 26.57, 100.66 0.05 M55.39 52.12 C66.03 39.89, 76.66 27.66, 100.66 0.05 M60.38 52.48 C76.09 34.41, 91.8 16.34, 106.3 -0.34 M60.38 52.48 C75.01 35.65, 89.64 18.82, 106.3 -0.34 M66.02 52.09 C78.12 38.17, 90.23 24.24, 111.29 0.02 M66.02 52.09 C75.79 40.85, 85.57 29.6, 111.29 0.02 M71.01 52.45 C87.22 33.8, 103.43 15.15, 116.27 0.38 M71.01 52.45 C84.56 36.86, 98.11 21.28, 116.27 0.38 M76.65 52.06 C86.71 40.48, 96.78 28.9, 121.92 -0.02 M76.65 52.06 C85.85 41.48, 95.04 30.89, 121.92 -0.02 M81.64 52.42 C92.38 40.06, 103.12 27.7, 124.94 2.6 M81.64 52.42 C97.41 34.27, 113.18 16.13, 124.94 2.6 M87.28 52.02 C95.41 42.67, 103.54 33.32, 125.33 8.25 M87.28 52.02 C97.27 40.53, 107.26 29.04, 125.33 8.25 M92.27 52.38 C105.25 37.44, 118.24 22.51, 125.07 14.65 M92.27 52.38 C104.12 38.75, 115.97 25.11, 125.07 14.65 M97.91 51.99 C108.4 39.92, 118.88 27.86, 125.46 20.29 M97.91 51.99 C107.52 40.94, 117.12 29.89, 125.46 20.29 M102.9 52.35 C111.18 42.82, 119.46 33.3, 125.2 26.69 M102.9 52.35 C109.08 45.23, 115.26 38.12, 125.2 26.69 M108.54 51.95 C115.08 44.43, 121.61 36.92, 124.94 33.08 M108.54 51.95 C111.91 48.08, 115.28 44.2, 124.94 33.08 M113.53 52.31 C116.24 49.19, 118.95 46.07, 125.34 38.73 M113.53 52.31 C117.52 47.72, 121.51 43.13, 125.34 38.73 M118.51 52.67 C121 49.82, 123.48 46.96, 125.07 45.13 M118.51 52.67 C120.26 50.67, 122 48.66, 125.07 45.13" stroke="#ced4da" stroke-width="0.5" fill="none"></path><path d="M0 0 C48.18 0, 96.35 0, 122.6 0 M0 0 C43.29 0, 86.58 0, 122.6 0 M122.6 0 C122.6 14.18, 122.6 28.36, 122.6 50.4 M122.6 0 C122.6 15.48, 122.6 30.95, 122.6 50.4 M122.6 50.4 C88.02 50.4, 53.43 50.4, 0 50.4 M122.6 50.4 C82.1 50.4, 41.59 50.4, 0 50.4 M0 50.4 C0 35.95, 0 21.5, 0 0 M0 50.4 C0 30.93, 0 11.46, 0 0" stroke="#000000" stroke-width="1" fill="none"></path></g><g stroke-linecap="round" transform="translate(269.0373840332031 117.94584655761719) rotate(0 61.5 25.202056884765625)"><path d="M0 0 C0 0, 0 0, 0 0 M0 0 C0 0, 0 0, 0 0 M-0.26 6.4 C1.58 4.28, 3.43 2.15, 4.99 0.36 M-0.26 6.4 C1.58 4.28, 3.42 2.16, 4.99 0.36 M0.13 12.04 C2.6 9.2, 5.07 6.36, 10.63 -0.03 M0.13 12.04 C3.8 7.83, 7.46 3.61, 10.63 -0.03 M-0.13 18.44 C3.2 14.61, 6.52 10.79, 15.62 0.33 M-0.13 18.44 C5.68 11.76, 11.48 5.08, 15.62 0.33 M0.27 24.08 C6.75 16.62, 13.24 9.15, 21.26 -0.07 M0.27 24.08 C4.87 18.79, 9.47 13.5, 21.26 -0.07 M0 30.48 C7.34 22.04, 14.68 13.6, 26.25 0.29 M0 30.48 C7.35 22.03, 14.7 13.58, 26.25 0.29 M-0.26 36.88 C7.3 28.18, 14.86 19.49, 31.89 -0.1 M-0.26 36.88 C6.54 29.06, 13.33 21.25, 31.89 -0.1 M0.14 42.52 C14.49 26.01, 28.84 9.51, 36.88 0.26 M0.14 42.52 C13.47 27.18, 26.81 11.84, 36.88 0.26 M-0.12 48.92 C12.84 34.01, 25.79 19.1, 42.52 -0.14 M-0.12 48.92 C12 34.98, 24.11 21.04, 42.52 -0.14 M2.24 52.3 C12.05 41.01, 21.87 29.72, 47.51 0.22 M2.24 52.3 C17.28 34.99, 32.33 17.69, 47.51 0.22 M7.23 52.66 C20.78 37.06, 34.34 21.47, 53.15 -0.17 M7.23 52.66 C24.8 32.44, 42.38 12.22, 53.15 -0.17 M12.87 52.26 C29.62 32.99, 46.38 13.72, 58.14 0.19 M12.87 52.26 C23.65 39.86, 34.43 27.46, 58.14 0.19 M17.86 52.62 C35.21 32.66, 52.57 12.69, 63.78 -0.21 M17.86 52.62 C33.36 34.79, 48.87 16.95, 63.78 -0.21 M23.5 52.23 C37.14 36.53, 50.79 20.83, 68.77 0.15 M23.5 52.23 C40.09 33.14, 56.69 14.05, 68.77 0.15 M28.49 52.59 C38.13 41.49, 47.78 30.4, 74.41 -0.24 M28.49 52.59 C45.27 33.28, 62.06 13.96, 74.41 -0.24 M34.13 52.19 C43.22 41.74, 52.3 31.29, 79.4 0.12 M34.13 52.19 C49.52 34.49, 64.9 16.79, 79.4 0.12 M39.12 52.55 C50.07 39.95, 61.02 27.36, 85.04 -0.28 M39.12 52.55 C56.07 33.05, 73.02 13.55, 85.04 -0.28 M44.76 52.16 C58.21 36.69, 71.65 21.22, 90.03 0.08 M44.76 52.16 C54.54 40.9, 64.33 29.65, 90.03 0.08 M49.75 52.52 C68.09 31.42, 86.43 10.32, 95.67 -0.31 M49.75 52.52 C60.62 40.01, 71.5 27.49, 95.67 -0.31 M55.39 52.12 C71.61 33.46, 87.84 14.8, 100.66 0.05 M55.39 52.12 C73.02 31.85, 90.64 11.57, 100.66 0.05 M60.38 52.48 C70.38 40.98, 80.37 29.48, 106.3 -0.34 M60.38 52.48 C76.14 34.35, 91.91 16.21, 106.3 -0.34 M66.02 52.09 C83.77 31.68, 101.51 11.26, 111.29 0.02 M66.02 52.09 C79.12 37.02, 92.23 21.94, 111.29 0.02 M71.01 52.45 C84.94 36.42, 98.88 20.39, 116.27 0.38 M71.01 52.45 C82.27 39.49, 93.54 26.53, 116.27 0.38 M76.65 52.06 C92.23 34.14, 107.8 16.22, 121.92 -0.02 M76.65 52.06 C89.43 37.35, 102.21 22.65, 121.92 -0.02 M81.64 52.42 C93.63 38.62, 105.63 24.82, 125.59 1.85 M81.64 52.42 C99.21 32.2, 116.79 11.98, 125.59 1.85 M87.28 52.02 C102.5 34.51, 117.72 17.01, 125.33 8.25 M87.28 52.02 C101.35 35.83, 115.43 19.64, 125.33 8.25 M92.27 52.38 C99 44.64, 105.73 36.89, 125.07 14.65 M92.27 52.38 C99.77 43.75, 107.26 35.13, 125.07 14.65 M97.91 51.99 C105.73 42.99, 113.55 33.99, 125.46 20.29 M97.91 51.99 C105.89 42.8, 113.88 33.62, 125.46 20.29 M102.9 52.35 C111.51 42.44, 120.13 32.53, 125.2 26.69 M102.9 52.35 C108.55 45.85, 114.2 39.34, 125.2 26.69 M108.54 51.95 C114.67 44.9, 120.79 37.86, 125.6 32.33 M108.54 51.95 C112.22 47.72, 115.9 43.49, 125.6 32.33 M113.53 52.31 C118.09 47.06, 122.65 41.82, 125.34 38.73 M113.53 52.31 C117.99 47.17, 122.46 42.03, 125.34 38.73 M118.51 52.67 C120.67 50.19, 122.82 47.71, 125.07 45.13 M118.51 52.67 C120.2 50.73, 121.89 48.79, 125.07 45.13" stroke="#ced4da" stroke-width="0.5" fill="none"></path><path d="M0 0 C31.15 0, 62.31 0, 123 0 M0 0 C45.6 0, 91.19 0, 123 0 M123 0 C123 16.06, 123 32.13, 123 50.4 M123 0 C123 13.22, 123 26.45, 123 50.4 M123 50.4 C83 50.4, 43 50.4, 0 50.4 M123 50.4 C89.94 50.4, 56.88 50.4, 0 50.4 M0 50.4 C0 40.03, 0 29.66, 0 0 M0 50.4 C0 36.07, 0 21.73, 0 0" stroke="#000000" stroke-width="1" fill="none"></path></g><g stroke-linecap="round" transform="translate(330.6286926269531 233.23789978027344) rotate(0 80.11929321289062 25.202056884765625)"><path d="M0 0 C0 0, 0 0, 0 0 M0 0 C0 0, 0 0, 0 0 M-0.26 6.4 C1.68 4.16, 3.62 1.93, 4.99 0.36 M-0.26 6.4 C1.13 4.8, 2.51 3.21, 4.99 0.36 M0.13 12.04 C3.03 8.71, 5.93 5.37, 10.63 -0.03 M0.13 12.04 C3.54 8.12, 6.95 4.2, 10.63 -0.03 M-0.13 18.44 C4.62 12.98, 9.37 7.52, 15.62 0.33 M-0.13 18.44 C3.07 14.76, 6.28 11.07, 15.62 0.33 M0.27 24.08 C5.38 18.2, 10.49 12.32, 21.26 -0.07 M0.27 24.08 C4.91 18.74, 9.55 13.4, 21.26 -0.07 M0 30.48 C8.65 20.53, 17.3 10.58, 26.25 0.29 M0 30.48 C6.58 22.91, 13.16 15.35, 26.25 0.29 M-0.26 36.88 C7.03 28.5, 14.31 20.12, 31.89 -0.1 M-0.26 36.88 C11.24 23.65, 22.73 10.43, 31.89 -0.1 M0.14 42.52 C13.03 27.69, 25.92 12.86, 36.88 0.26 M0.14 42.52 C12.68 28.09, 25.23 13.65, 36.88 0.26 M-0.12 48.92 C11.69 35.33, 23.5 21.75, 42.52 -0.14 M-0.12 48.92 C15.92 30.47, 31.96 12.01, 42.52 -0.14 M2.24 52.3 C13.44 39.41, 24.65 26.52, 47.51 0.22 M2.24 52.3 C18.1 34.06, 33.95 15.81, 47.51 0.22 M7.23 52.66 C24.78 32.46, 42.34 12.26, 53.15 -0.17 M7.23 52.66 C21.38 36.37, 35.53 20.09, 53.15 -0.17 M12.87 52.26 C30.42 32.07, 47.98 11.87, 58.14 0.19 M12.87 52.26 C30.54 31.93, 48.21 11.6, 58.14 0.19 M17.86 52.62 C34.68 33.27, 51.51 13.91, 63.78 -0.21 M17.86 52.62 C30.45 38.14, 43.04 23.65, 63.78 -0.21 M23.5 52.23 C38.25 35.26, 53.01 18.28, 68.77 0.15 M23.5 52.23 C37.73 35.86, 51.95 19.49, 68.77 0.15 M28.49 52.59 C46.35 32.04, 64.21 11.5, 74.41 -0.24 M28.49 52.59 C46.1 32.32, 63.72 12.06, 74.41 -0.24 M34.13 52.19 C47.8 36.47, 61.47 20.74, 79.4 0.12 M34.13 52.19 C43.79 41.08, 53.46 29.96, 79.4 0.12 M39.12 52.55 C50.39 39.59, 61.66 26.62, 85.04 -0.28 M39.12 52.55 C49.91 40.14, 60.7 27.73, 85.04 -0.28 M44.76 52.16 C60.25 34.34, 75.73 16.53, 90.03 0.08 M44.76 52.16 C59.18 35.57, 73.61 18.97, 90.03 0.08 M49.75 52.52 C62.03 38.39, 74.31 24.27, 95.67 -0.31 M49.75 52.52 C59.66 41.11, 69.58 29.71, 95.67 -0.31 M55.39 52.12 C71.6 33.47, 87.82 14.82, 100.66 0.05 M55.39 52.12 C68.94 36.54, 82.49 20.95, 100.66 0.05 M60.38 52.48 C70.59 40.74, 80.8 29, 106.3 -0.34 M60.38 52.48 C69.71 41.75, 79.04 31.02, 106.3 -0.34 M66.02 52.09 C77.25 39.17, 88.48 26.25, 111.29 0.02 M66.02 52.09 C82.51 33.12, 99 14.15, 111.29 0.02 M71.01 52.45 C80.68 41.33, 90.34 30.2, 116.27 0.38 M71.01 52.45 C82.89 38.78, 94.77 25.11, 116.27 0.38 M76.65 52.06 C94.57 31.44, 112.49 10.83, 121.92 -0.02 M76.65 52.06 C93.01 33.24, 109.36 14.43, 121.92 -0.02 M81.64 52.42 C98.86 32.6, 116.09 12.78, 126.91 0.34 M81.64 52.42 C97.42 34.26, 113.2 16.11, 126.91 0.34 M87.28 52.02 C104.08 32.69, 120.88 13.36, 132.55 -0.05 M87.28 52.02 C99.83 37.59, 112.38 23.15, 132.55 -0.05 M92.27 52.38 C110.3 31.63, 128.34 10.88, 137.54 0.31 M92.27 52.38 C101.57 41.68, 110.87 30.98, 137.54 0.31 M97.91 51.99 C108.31 40.02, 118.71 28.06, 143.18 -0.09 M97.91 51.99 C113.21 34.39, 128.51 16.79, 143.18 -0.09 M102.9 52.35 C120.03 32.64, 137.17 12.93, 148.17 0.27 M102.9 52.35 C114.94 38.5, 126.98 24.65, 148.17 0.27 M108.54 51.95 C118.2 40.84, 127.86 29.73, 153.81 -0.12 M108.54 51.95 C122.5 35.89, 136.46 19.83, 153.81 -0.12 M113.53 52.31 C130.18 33.16, 146.83 14, 158.8 0.24 M113.53 52.31 C129.47 33.98, 145.41 15.64, 158.8 0.24 M118.51 52.67 C129.48 40.05, 140.45 27.43, 162.47 2.11 M118.51 52.67 C135.78 32.82, 153.04 12.96, 162.47 2.11 M124.16 52.28 C133.82 41.16, 143.48 30.05, 162.86 7.75 M124.16 52.28 C138.67 35.58, 153.19 18.88, 162.86 7.75 M129.14 52.64 C137.57 42.94, 146 33.25, 162.6 14.15 M129.14 52.64 C140.31 39.79, 151.49 26.94, 162.6 14.15 M134.79 52.24 C141.47 44.55, 148.16 36.86, 162.34 20.55 M134.79 52.24 C141.25 44.8, 147.72 37.37, 162.34 20.55 M139.77 52.6 C144.82 46.8, 149.87 40.99, 162.74 26.19 M139.77 52.6 C146.99 44.31, 154.2 36.01, 162.74 26.19 M145.42 52.21 C148.87 48.24, 152.31 44.27, 162.48 32.59 M145.42 52.21 C150.88 45.92, 156.35 39.64, 162.48 32.59 M150.4 52.57 C154.63 47.71, 158.85 42.85, 162.87 38.23 M150.4 52.57 C153.58 48.92, 156.75 45.27, 162.87 38.23 M156.05 52.17 C158.14 49.77, 160.23 47.36, 162.61 44.63 M156.05 52.17 C157.43 50.59, 158.81 49, 162.61 44.63" stroke="#ced4da" stroke-width="0.5" fill="none"></path><path d="M0 0 C45.94 0, 91.88 0, 160.24 0 M0 0 C61.9 0, 123.8 0, 160.24 0 M160.24 0 C160.24 17.24, 160.24 34.47, 160.24 50.4 M160.24 0 C160.24 13.38, 160.24 26.77, 160.24 50.4 M160.24 50.4 C118.65 50.4, 77.06 50.4, 0 50.4 M160.24 50.4 C123.91 50.4, 87.57 50.4, 0 50.4 M0 50.4 C0 34.02, 0 17.63, 0 0 M0 50.4 C0 33.39, 0 16.38, 0 0" stroke="#000000" stroke-width="1" fill="none"></path></g><g stroke-linecap="round" transform="translate(486.8584899902344 313.2279815673828) rotate(0 61.302459716796875 25.202056884765625)"><path d="M0 0 C0 0, 0 0, 0 0 M0 0 C0 0, 0 0, 0 0 M-0.26 6.4 C0.97 4.98, 2.21 3.56, 4.99 0.36 M-0.26 6.4 C1.57 4.29, 3.4 2.18, 4.99 0.36 M0.13 12.04 C2.35 9.49, 4.56 6.94, 10.63 -0.03 M0.13 12.04 C4 7.59, 7.88 3.13, 10.63 -0.03 M-0.13 18.44 C4.74 12.84, 9.6 7.24, 15.62 0.33 M-0.13 18.44 C3.32 14.47, 6.77 10.5, 15.62 0.33 M0.27 24.08 C6.14 17.33, 12.01 10.58, 21.26 -0.07 M0.27 24.08 C6.14 17.32, 12.02 10.56, 21.26 -0.07 M0 30.48 C6.17 23.38, 12.34 16.28, 26.25 0.29 M0 30.48 C5.55 24.1, 11.09 17.72, 26.25 0.29 M-0.26 36.88 C12.3 22.43, 24.85 7.99, 31.89 -0.1 M-0.26 36.88 C11.41 23.45, 23.08 10.03, 31.89 -0.1 M0.14 42.52 C11.3 29.68, 22.47 16.83, 36.88 0.26 M0.14 42.52 C10.58 30.51, 21.02 18.5, 36.88 0.26 M-0.12 48.92 C9.12 38.28, 18.36 27.65, 42.52 -0.14 M-0.12 48.92 C14.05 32.62, 28.22 16.31, 42.52 -0.14 M2.24 52.3 C15.6 36.92, 28.97 21.55, 47.51 0.22 M2.24 52.3 C19.57 32.37, 36.89 12.44, 47.51 0.22 M7.23 52.66 C24.22 33.1, 41.22 13.55, 53.15 -0.17 M7.23 52.66 C18.16 40.08, 29.1 27.5, 53.15 -0.17 M12.87 52.26 C29.98 32.58, 47.09 12.9, 58.14 0.19 M12.87 52.26 C28.15 34.68, 43.44 17.1, 58.14 0.19 M17.86 52.62 C31.7 36.7, 45.54 20.77, 63.78 -0.21 M17.86 52.62 C34.69 33.26, 51.53 13.89, 63.78 -0.21 M23.5 52.23 C33.01 41.29, 42.52 30.35, 68.77 0.15 M23.5 52.23 C40.05 33.19, 56.6 14.16, 68.77 0.15 M28.49 52.59 C37.7 41.98, 46.92 31.38, 74.41 -0.24 M28.49 52.59 C44.1 34.63, 59.71 16.67, 74.41 -0.24 M34.13 52.19 C44.93 39.77, 55.72 27.36, 79.4 0.12 M34.13 52.19 C50.84 32.97, 67.55 13.75, 79.4 0.12 M39.12 52.55 C52.76 36.86, 66.4 21.17, 85.04 -0.28 M39.12 52.55 C49.04 41.13, 58.97 29.71, 85.04 -0.28 M44.76 52.16 C62.84 31.36, 80.91 10.57, 90.03 0.08 M44.76 52.16 C55.48 39.82, 66.21 27.49, 90.03 0.08 M49.75 52.52 C66.21 33.58, 82.67 14.65, 95.67 -0.31 M49.75 52.52 C67.63 31.95, 85.51 11.38, 95.67 -0.31 M55.39 52.12 C65.25 40.79, 75.1 29.45, 100.66 0.05 M55.39 52.12 C70.93 34.25, 86.47 16.37, 100.66 0.05 M60.38 52.48 C78.38 31.77, 96.38 11.06, 106.3 -0.34 M60.38 52.48 C73.67 37.19, 86.96 21.9, 106.3 -0.34 M66.02 52.09 C79.95 36.06, 93.89 20.03, 111.29 0.02 M66.02 52.09 C77.28 39.13, 88.55 26.17, 111.29 0.02 M71.01 52.45 C86.58 34.53, 102.16 16.61, 116.27 0.38 M71.01 52.45 C83.79 37.75, 96.57 23.05, 116.27 0.38 M76.65 52.06 C89 37.84, 101.36 23.63, 121.92 -0.02 M76.65 52.06 C94.75 31.23, 112.85 10.41, 121.92 -0.02 M81.64 52.42 C98.95 32.49, 116.27 12.57, 124.94 2.6 M81.64 52.42 C97.65 33.99, 113.66 15.57, 124.94 2.6 M87.28 52.02 C95.09 43.04, 102.9 34.05, 125.33 8.25 M87.28 52.02 C95.98 42.01, 104.68 32.01, 125.33 8.25 M92.27 52.38 C101.58 41.67, 110.89 30.96, 125.07 14.65 M92.27 52.38 C101.77 41.45, 111.27 30.52, 125.07 14.65 M97.91 51.99 C108.55 39.74, 119.19 27.5, 125.46 20.29 M97.91 51.99 C104.89 43.96, 111.87 35.92, 125.46 20.29 M102.9 52.35 C110.91 43.13, 118.92 33.91, 125.2 26.69 M102.9 52.35 C107.71 46.81, 112.52 41.28, 125.2 26.69 M108.54 51.95 C114.88 44.66, 121.21 37.38, 124.94 33.08 M108.54 51.95 C114.75 44.81, 120.95 37.68, 124.94 33.08 M113.53 52.31 C117.41 47.85, 121.29 43.39, 125.34 38.73 M113.53 52.31 C116.57 48.81, 119.61 45.32, 125.34 38.73 M118.51 52.67 C120.91 49.92, 123.3 47.16, 125.07 45.13 M118.51 52.67 C121.1 49.7, 123.68 46.73, 125.07 45.13" stroke="#ced4da" stroke-width="0.5" fill="none"></path><path d="M0 0 C39.07 0, 78.15 0, 122.6 0 M0 0 C32.16 0, 64.33 0, 122.6 0 M122.6 0 C122.6 16.39, 122.6 32.79, 122.6 50.4 M122.6 0 C122.6 13.55, 122.6 27.1, 122.6 50.4 M122.6 50.4 C97.38 50.4, 72.15 50.4, 0 50.4 M122.6 50.4 C87.73 50.4, 52.85 50.4, 0 50.4 M0 50.4 C0 34.71, 0 19.02, 0 0 M0 50.4 C0 33.88, 0 17.35, 0 0" stroke="#000000" stroke-width="1" fill="none"></path></g><g stroke-linecap="round" transform="translate(552.0373840332031 306.9458465576172) rotate(0 87.56851196289062 25.202056884765625)"><path d="M0 0 C0 0, 0 0, 0 0 M0 0 C0 0, 0 0, 0 0 M-0.26 6.4 C1.21 4.71, 2.67 3.02, 4.99 0.36 M-0.26 6.4 C1.02 4.93, 2.3 3.46, 4.99 0.36 M0.13 12.04 C3.43 8.25, 6.73 4.45, 10.63 -0.03 M0.13 12.04 C2.98 8.76, 5.83 5.49, 10.63 -0.03 M-0.13 18.44 C5.51 11.96, 11.14 5.48, 15.62 0.33 M-0.13 18.44 C6.12 11.25, 12.38 4.05, 15.62 0.33 M0.27 24.08 C6.96 16.38, 13.65 8.68, 21.26 -0.07 M0.27 24.08 C6.51 16.9, 12.75 9.72, 21.26 -0.07 M0 30.48 C10.06 18.91, 20.12 7.34, 26.25 0.29 M0 30.48 C9.54 19.51, 19.07 8.55, 26.25 0.29 M-0.26 36.88 C7.95 27.44, 16.15 18.01, 31.89 -0.1 M-0.26 36.88 C6.5 29.1, 13.26 21.32, 31.89 -0.1 M0.14 42.52 C11.06 29.96, 21.98 17.39, 36.88 0.26 M0.14 42.52 C10.7 30.37, 21.26 18.22, 36.88 0.26 M-0.12 48.92 C15.73 30.68, 31.58 12.45, 42.52 -0.14 M-0.12 48.92 C16.36 29.96, 32.85 10.99, 42.52 -0.14 M2.24 52.3 C19.46 32.48, 36.69 12.67, 47.51 0.22 M2.24 52.3 C13.62 39.2, 25.01 26.1, 47.51 0.22 M7.23 52.66 C21.29 36.48, 35.35 20.31, 53.15 -0.17 M7.23 52.66 C20.45 37.44, 33.68 22.23, 53.15 -0.17 M12.87 52.26 C28.83 33.9, 44.79 15.55, 58.14 0.19 M12.87 52.26 C29.74 32.85, 46.61 13.45, 58.14 0.19 M17.86 52.62 C35.55 32.27, 53.24 11.92, 63.78 -0.21 M17.86 52.62 C34.51 33.47, 51.16 14.31, 63.78 -0.21 M23.5 52.23 C35.82 38.06, 48.14 23.88, 68.77 0.15 M23.5 52.23 C37.28 36.37, 51.06 20.52, 68.77 0.15 M28.49 52.59 C43.39 35.44, 58.29 18.3, 74.41 -0.24 M28.49 52.59 C44.29 34.41, 60.1 16.23, 74.41 -0.24 M34.13 52.19 C44.86 39.85, 55.6 27.5, 79.4 0.12 M34.13 52.19 C49.34 34.69, 64.56 17.19, 79.4 0.12 M39.12 52.55 C54.23 35.17, 69.33 17.79, 85.04 -0.28 M39.12 52.55 C55.3 33.93, 71.49 15.31, 85.04 -0.28 M44.76 52.16 C57.63 37.36, 70.49 22.56, 90.03 0.08 M44.76 52.16 C58.02 36.91, 71.28 21.66, 90.03 0.08 M49.75 52.52 C67.77 31.79, 85.79 11.05, 95.67 -0.31 M49.75 52.52 C67.81 31.74, 85.88 10.96, 95.67 -0.31 M55.39 52.12 C68.49 37.05, 81.59 21.98, 100.66 0.05 M55.39 52.12 C66.08 39.83, 76.76 27.54, 100.66 0.05 M60.38 52.48 C78.65 31.47, 96.92 10.45, 106.3 -0.34 M60.38 52.48 C72.25 38.83, 84.11 25.18, 106.3 -0.34 M66.02 52.09 C78.14 38.15, 90.26 24.21, 111.29 0.02 M66.02 52.09 C82.44 33.2, 98.86 14.31, 111.29 0.02 M71.01 52.45 C80.84 41.14, 90.67 29.83, 116.27 0.38 M71.01 52.45 C81.21 40.72, 91.41 28.98, 116.27 0.38 M76.65 52.06 C89.01 37.84, 101.37 23.62, 121.92 -0.02 M76.65 52.06 C90.5 36.12, 104.36 20.18, 121.92 -0.02 M81.64 52.42 C91.21 41.4, 100.78 30.39, 126.91 0.34 M81.64 52.42 C97.82 33.79, 114.01 15.17, 126.91 0.34 M87.28 52.02 C100.79 36.47, 114.31 20.93, 132.55 -0.05 M87.28 52.02 C97.92 39.79, 108.55 27.55, 132.55 -0.05 M92.27 52.38 C107.25 35.15, 122.22 17.92, 137.54 0.31 M92.27 52.38 C101.53 41.72, 110.8 31.06, 137.54 0.31 M97.91 51.99 C114.95 32.39, 131.98 12.79, 143.18 -0.09 M97.91 51.99 C113.95 33.53, 130 15.08, 143.18 -0.09 M102.9 52.35 C112.61 41.17, 122.33 30, 148.17 0.27 M102.9 52.35 C116.57 36.62, 130.24 20.89, 148.17 0.27 M108.54 51.95 C121.11 37.49, 133.68 23.03, 153.81 -0.12 M108.54 51.95 C117.84 41.26, 127.13 30.57, 153.81 -0.12 M113.53 52.31 C126.69 37.17, 139.86 22.02, 158.8 0.24 M113.53 52.31 C125.8 38.2, 138.07 24.08, 158.8 0.24 M118.51 52.67 C128.29 41.43, 138.07 30.18, 164.44 -0.16 M118.51 52.67 C135.26 33.41, 152 14.15, 164.44 -0.16 M124.16 52.28 C136.69 37.85, 149.23 23.43, 169.43 0.2 M124.16 52.28 C138.6 35.66, 153.04 19.05, 169.43 0.2 M129.14 52.64 C144.35 35.14, 159.57 17.64, 175.07 -0.19 M129.14 52.64 C144.98 34.42, 160.82 16.2, 175.07 -0.19 M134.79 52.24 C146.88 38.33, 158.97 24.42, 178.09 2.43 M134.79 52.24 C149.47 35.35, 164.16 18.46, 178.09 2.43 M139.77 52.6 C148.19 42.93, 156.6 33.25, 177.83 8.83 M139.77 52.6 C151 39.69, 162.22 26.78, 177.83 8.83 M145.42 52.21 C155.04 41.14, 164.66 30.07, 178.22 14.47 M145.42 52.21 C152.33 44.26, 159.23 36.31, 178.22 14.47 M150.4 52.57 C156.19 45.91, 161.98 39.26, 177.96 20.87 M150.4 52.57 C158.65 43.08, 166.9 33.59, 177.96 20.87 M156.05 52.17 C162.62 44.62, 169.19 37.06, 177.7 27.27 M156.05 52.17 C162.51 44.74, 168.97 37.3, 177.7 27.27 M161.03 52.53 C165.55 47.35, 170.06 42.16, 178.09 32.91 M161.03 52.53 C165.79 47.06, 170.55 41.59, 178.09 32.91 M166.68 52.14 C170.95 47.22, 175.23 42.3, 177.83 39.31 M166.68 52.14 C170.63 47.6, 174.57 43.06, 177.83 39.31 M171.66 52.5 C173.57 50.31, 175.47 48.12, 178.23 44.95 M171.66 52.5 C173.57 50.31, 175.47 48.13, 178.23 44.95" stroke="#ced4da" stroke-width="0.5" fill="none"></path><path d="M0 0 C59.71 0, 119.43 0, 175.14 0 M0 0 C60.48 0, 120.97 0, 175.14 0 M175.14 0 C175.14 14.78, 175.14 29.55, 175.14 50.4 M175.14 0 C175.14 13.7, 175.14 27.41, 175.14 50.4 M175.14 50.4 C131.14 50.4, 87.15 50.4, 0 50.4 M175.14 50.4 C138.95 50.4, 102.75 50.4, 0 50.4 M0 50.4 C0 38.02, 0 25.63, 0 0 M0 50.4 C0 30.59, 0 10.77, 0 0" stroke="#000000" stroke-width="1" fill="none"></path></g><g stroke-linecap="round" transform="translate(238.27725219726562 429.39344787597656) rotate(0 61.302459716796875 25.202056884765625)"><path d="M0 0 C0 0, 0 0, 0 0 M0 0 C0 0, 0 0, 0 0 M-0.26 6.4 C1.37 4.52, 3.01 2.63, 4.99 0.36 M-0.26 6.4 C1.25 4.66, 2.76 2.92, 4.99 0.36 M0.13 12.04 C2.43 9.4, 4.73 6.75, 10.63 -0.03 M0.13 12.04 C2.36 9.48, 4.58 6.93, 10.63 -0.03 M-0.13 18.44 C5.3 12.19, 10.73 5.95, 15.62 0.33 M-0.13 18.44 C5.54 11.91, 11.21 5.39, 15.62 0.33 M0.27 24.08 C4.65 19.04, 9.02 14.01, 21.26 -0.07 M0.27 24.08 C5.39 18.18, 10.52 12.29, 21.26 -0.07 M0 30.48 C7.66 21.68, 15.31 12.88, 26.25 0.29 M0 30.48 C6.7 22.78, 13.4 15.07, 26.25 0.29 M-0.26 36.88 C11.88 22.92, 24.01 8.96, 31.89 -0.1 M-0.26 36.88 C8.56 26.73, 17.38 16.59, 31.89 -0.1 M0.14 42.52 C14.57 25.92, 29 9.32, 36.88 0.26 M0.14 42.52 C14.17 26.38, 28.19 10.25, 36.88 0.26 M-0.12 48.92 C14.73 31.84, 29.57 14.76, 42.52 -0.14 M-0.12 48.92 C11.24 35.85, 22.6 22.78, 42.52 -0.14 M2.24 52.3 C19.36 32.6, 36.49 12.9, 47.51 0.22 M2.24 52.3 C17.4 34.86, 32.55 17.43, 47.51 0.22 M7.23 52.66 C20.21 37.72, 33.2 22.78, 53.15 -0.17 M7.23 52.66 C21.96 35.71, 36.69 18.76, 53.15 -0.17 M12.87 52.26 C29.48 33.15, 46.09 14.05, 58.14 0.19 M12.87 52.26 C30.75 31.7, 48.63 11.13, 58.14 0.19 M17.86 52.62 C35.41 32.43, 52.96 12.25, 63.78 -0.21 M17.86 52.62 C35.02 32.88, 52.18 13.14, 63.78 -0.21 M23.5 52.23 C40.1 33.13, 56.69 14.04, 68.77 0.15 M23.5 52.23 C33.86 40.31, 44.22 28.39, 68.77 0.15 M28.49 52.59 C46.22 32.19, 63.96 11.79, 74.41 -0.24 M28.49 52.59 C42.13 36.89, 55.78 21.19, 74.41 -0.24 M34.13 52.19 C51.08 32.7, 68.03 13.2, 79.4 0.12 M34.13 52.19 C51.75 31.92, 69.37 11.65, 79.4 0.12 M39.12 52.55 C51.7 38.08, 64.27 23.61, 85.04 -0.28 M39.12 52.55 C57.46 31.46, 75.8 10.36, 85.04 -0.28 M44.76 52.16 C57.27 37.77, 69.78 23.38, 90.03 0.08 M44.76 52.16 C54.47 40.98, 64.19 29.81, 90.03 0.08 M49.75 52.52 C66.44 33.32, 83.13 14.12, 95.67 -0.31 M49.75 52.52 C64.64 35.39, 79.53 18.26, 95.67 -0.31 M55.39 52.12 C71.12 34.03, 86.85 15.93, 100.66 0.05 M55.39 52.12 C70.3 34.97, 85.21 17.82, 100.66 0.05 M60.38 52.48 C70.11 41.29, 79.84 30.09, 106.3 -0.34 M60.38 52.48 C76.54 33.9, 92.69 15.31, 106.3 -0.34 M66.02 52.09 C81.96 33.75, 97.9 15.42, 111.29 0.02 M66.02 52.09 C81.59 34.17, 97.17 16.26, 111.29 0.02 M71.01 52.45 C85.29 36.01, 99.58 19.58, 116.27 0.38 M71.01 52.45 C84.5 36.93, 97.99 21.41, 116.27 0.38 M76.65 52.06 C87.67 39.38, 98.68 26.71, 121.92 -0.02 M76.65 52.06 C92.72 33.57, 108.79 15.08, 121.92 -0.02 M81.64 52.42 C90.72 41.97, 99.8 31.52, 124.94 2.6 M81.64 52.42 C90.93 41.73, 100.22 31.04, 124.94 2.6 M87.28 52.02 C97.31 40.48, 107.34 28.94, 125.33 8.25 M87.28 52.02 C96.58 41.32, 105.88 30.62, 125.33 8.25 M92.27 52.38 C104.36 38.47, 116.46 24.56, 125.07 14.65 M92.27 52.38 C101.76 41.46, 111.25 30.54, 125.07 14.65 M97.91 51.99 C104.64 44.24, 111.37 36.5, 125.46 20.29 M97.91 51.99 C108.4 39.92, 118.89 27.85, 125.46 20.29 M102.9 52.35 C109.72 44.5, 116.54 36.65, 125.2 26.69 M102.9 52.35 C110.61 43.47, 118.33 34.59, 125.2 26.69 M108.54 51.95 C113.55 46.18, 118.57 40.42, 124.94 33.08 M108.54 51.95 C113.75 45.95, 118.97 39.96, 124.94 33.08 M113.53 52.31 C116.76 48.6, 119.99 44.88, 125.34 38.73 M113.53 52.31 C117.59 47.64, 121.65 42.96, 125.34 38.73 M118.51 52.67 C120.86 49.97, 123.2 47.28, 125.07 45.13 M118.51 52.67 C120.46 50.44, 122.4 48.2, 125.07 45.13" stroke="#ced4da" stroke-width="0.5" fill="none"></path><path d="M0 0 C34.76 0, 69.51 0, 122.6 0 M0 0 C48.59 0, 97.18 0, 122.6 0 M122.6 0 C122.6 13.56, 122.6 27.12, 122.6 50.4 M122.6 0 C122.6 15.42, 122.6 30.83, 122.6 50.4 M122.6 50.4 C75.83 50.4, 29.05 50.4, 0 50.4 M122.6 50.4 C78.18 50.4, 33.76 50.4, 0 50.4 M0 50.4 C0 33.23, 0 16.06, 0 0 M0 50.4 C0 34.5, 0 18.6, 0 0" stroke="#000000" stroke-width="1" fill="none"></path></g><g stroke-linecap="round"><g transform="translate(218.83160400390625 233.6663055419922) rotate(0 306.92779516601564 126.04475341796874)"><path d="M0 0 C24 0.22, 119.83 -19.46, 144.01 1.31 C168.19 22.09, 167.04 103.29, 145.1 124.62 C123.16 145.96, 35.44 110.24, 12.36 129.32 C-10.72 148.41, -17.72 219.7, 6.62 239.14 C30.97 258.59, 116.47 244.86, 158.43 245.99 C200.4 247.11, 240.69 268.28, 258.4 245.89 C276.11 223.5, 242.43 134.42, 264.69 111.67 C286.95 88.91, 369.5 87.64, 391.98 109.36 C414.45 131.08, 378.78 219.22, 399.53 241.98 C420.28 264.75, 498.59 266.42, 516.49 245.93 C534.39 225.44, 497.48 142.72, 506.93 119.03 C516.37 95.34, 553.92 111.82, 573.16 103.8 C592.4 95.77, 614.17 76.36, 622.38 70.87 M0 0 C24 0.22, 119.83 -19.46, 144.01 1.31 C168.19 22.09, 167.04 103.29, 145.1 124.62 C123.16 145.96, 35.44 110.24, 12.36 129.32 C-10.72 148.41, -17.72 219.7, 6.62 239.14 C30.97 258.59, 116.47 244.86, 158.43 245.99 C200.4 247.11, 240.69 268.28, 258.4 245.89 C276.11 223.5, 242.43 134.42, 264.69 111.67 C286.95 88.91, 369.5 87.64, 391.98 109.36 C414.45 131.08, 378.78 219.22, 399.53 241.98 C420.28 264.75, 498.59 266.42, 516.49 245.93 C534.39 225.44, 497.48 142.72, 506.93 119.03 C516.37 95.34, 553.92 111.82, 573.16 103.8 C592.4 95.77, 614.17 76.36, 622.38 70.87" stroke="#0b7285" stroke-width="1" fill="none"></path></g></g><g stroke-linecap="round"><g transform="translate(467.83740234375 130.5160675048828) rotate(0 80.73470661926268 70.69797583007812)"><path d="M0 0 C-0.04 20.46, -26.85 101.29, -0.21 122.73 C26.42 144.18, 132.24 148.66, 159.82 128.69 C187.4 108.72, 164.36 23.87, 165.26 2.91 M0 0 C-0.04 20.46, -26.85 101.29, -0.21 122.73 C26.42 144.18, 132.24 148.66, 159.82 128.69 C187.4 108.72, 164.36 23.87, 165.26 2.91" stroke="#0b7285" stroke-width="1" fill="none"></path></g></g><g transform="translate(630.2073364257812 111.42887878417969) rotate(0 36 12.5)"><text x="0" y="18" font-family="Virgil, Segoe UI Emoji" font-size="20px" fill="#0b7285" text-anchor="start" style="white-space: pre;" direction="ltr">H-curve</text></g><g transform="translate(274.0373840332031 130.6479034423828) rotate(0 56.5 12.5)"><text x="56.5" y="18" font-family="Virgil, Segoe UI Emoji" font-size="20px" fill="#0b7285" text-anchor="middle" style="white-space: pre;" direction="ltr">Text box</text></g><g transform="translate(591.4423828125 322.04750061035156) rotate(0 46.5 12.5)"><text x="0" y="18" font-family="Virgil, Segoe UI Emoji" font-size="20px" fill="#0b7285" text-anchor="start" style="white-space: pre;" direction="ltr">Text box</text></g><g stroke-linecap="round" transform="translate(410.37652587890625 256.60987854003906) rotate(0 4.8482666015625 5.329254150390625)"><path d="M0.93 2.14 C0.93 2.14, 0.93 2.14, 0.93 2.14 M0.93 2.14 C0.93 2.14, 0.93 2.14, 0.93 2.14 M0.67 8.53 C2.59 6.32, 4.52 4.11, 7.23 0.99 M0.67 8.53 C2.18 6.8, 3.69 5.06, 7.23 0.99 M4.35 10.4 C6.09 8.4, 7.83 6.39, 10.25 3.61 M4.35 10.4 C5.84 8.69, 7.33 6.97, 10.25 3.61" stroke="#ced4da" stroke-width="0.5" fill="none"></path><path d="M9.7 5.33 C9.7 5.64, 9.67 5.95, 9.62 6.25 C9.57 6.56, 9.5 6.86, 9.4 7.15 C9.31 7.44, 9.19 7.73, 9.05 7.99 C8.91 8.26, 8.74 8.52, 8.56 8.75 C8.38 8.99, 8.18 9.21, 7.96 9.41 C7.75 9.61, 7.52 9.79, 7.27 9.94 C7.03 10.1, 6.77 10.23, 6.51 10.34 C6.24 10.44, 5.97 10.52, 5.69 10.58 C5.41 10.63, 5.13 10.66, 4.85 10.66 C4.57 10.66, 4.28 10.63, 4.01 10.58 C3.73 10.52, 3.45 10.44, 3.19 10.34 C2.93 10.23, 2.67 10.1, 2.42 9.94 C2.18 9.79, 1.95 9.61, 1.73 9.41 C1.52 9.21, 1.31 8.99, 1.13 8.75 C0.95 8.52, 0.79 8.26, 0.65 7.99 C0.51 7.73, 0.39 7.44, 0.29 7.15 C0.2 6.86, 0.12 6.56, 0.07 6.25 C0.02 5.95, 0 5.64, 0 5.33 C0 5.02, 0.02 4.71, 0.07 4.4 C0.12 4.1, 0.2 3.8, 0.29 3.51 C0.39 3.22, 0.51 2.93, 0.65 2.66 C0.79 2.4, 0.95 2.14, 1.13 1.9 C1.31 1.67, 1.52 1.45, 1.73 1.25 C1.95 1.05, 2.18 0.87, 2.42 0.71 C2.67 0.56, 2.93 0.43, 3.19 0.32 C3.45 0.22, 3.73 0.13, 4.01 0.08 C4.28 0.03, 4.57 0, 4.85 0 C5.13 0, 5.41 0.03, 5.69 0.08 C5.97 0.13, 6.24 0.22, 6.51 0.32 C6.77 0.43, 7.03 0.56, 7.27 0.71 C7.52 0.87, 7.75 1.05, 7.96 1.25 C8.18 1.45, 8.38 1.67, 8.56 1.9 C8.74 2.14, 8.91 2.4, 9.05 2.66 C9.19 2.93, 9.31 3.22, 9.4 3.51 C9.5 3.8, 9.57 4.1, 9.62 4.4 C9.67 4.71, 9.68 5.18, 9.7 5.33 C9.71 5.48, 9.71 5.18, 9.7 5.33" stroke="#0b7285" stroke-width="1" fill="none"></path></g><g stroke-linecap="round" transform="translate(346.2080078125 222.36717224121094) rotate(0 4.8482666015625 5.329254150390625)"><path d="M0.93 2.14 C0.93 2.14, 0.93 2.14, 0.93 2.14 M0.93 2.14 C0.93 2.14, 0.93 2.14, 0.93 2.14 M0.67 8.53 C2.78 6.1, 4.9 3.67, 7.23 0.99 M0.67 8.53 C2.57 6.34, 4.48 4.16, 7.23 0.99 M4.35 10.4 C6.07 8.42, 7.79 6.44, 10.25 3.61 M4.35 10.4 C5.94 8.56, 7.54 6.72, 10.25 3.61" stroke="#ced4da" stroke-width="0.5" fill="none"></path><path d="M9.7 5.33 C9.7 5.64, 9.67 5.95, 9.62 6.25 C9.57 6.56, 9.5 6.86, 9.4 7.15 C9.31 7.44, 9.19 7.73, 9.05 7.99 C8.91 8.26, 8.74 8.52, 8.56 8.75 C8.38 8.99, 8.18 9.21, 7.96 9.41 C7.75 9.61, 7.52 9.79, 7.27 9.94 C7.03 10.1, 6.77 10.23, 6.51 10.34 C6.24 10.44, 5.97 10.52, 5.69 10.58 C5.41 10.63, 5.13 10.66, 4.85 10.66 C4.57 10.66, 4.28 10.63, 4.01 10.58 C3.73 10.52, 3.45 10.44, 3.19 10.34 C2.93 10.23, 2.67 10.1, 2.42 9.94 C2.18 9.79, 1.95 9.61, 1.73 9.41 C1.52 9.21, 1.31 8.99, 1.13 8.75 C0.95 8.52, 0.79 8.26, 0.65 7.99 C0.51 7.73, 0.39 7.44, 0.29 7.15 C0.2 6.86, 0.12 6.56, 0.07 6.25 C0.02 5.95, 0 5.64, 0 5.33 C0 5.02, 0.02 4.71, 0.07 4.4 C0.12 4.1, 0.2 3.8, 0.29 3.51 C0.39 3.22, 0.51 2.93, 0.65 2.66 C0.79 2.4, 0.95 2.14, 1.13 1.9 C1.31 1.67, 1.52 1.45, 1.73 1.25 C1.95 1.05, 2.18 0.87, 2.42 0.71 C2.67 0.56, 2.93 0.43, 3.19 0.32 C3.45 0.22, 3.73 0.13, 4.01 0.08 C4.28 0.03, 4.57 0, 4.85 0 C5.13 0, 5.41 0.03, 5.69 0.08 C5.97 0.13, 6.24 0.22, 6.51 0.32 C6.77 0.43, 7.03 0.56, 7.27 0.71 C7.52 0.87, 7.75 1.05, 7.96 1.25 C8.18 1.45, 8.38 1.67, 8.56 1.9 C8.74 2.14, 8.91 2.4, 9.05 2.66 C9.19 2.93, 9.31 3.22, 9.4 3.51 C9.5 3.8, 9.57 4.1, 9.62 4.4 C9.67 4.71, 9.68 5.18, 9.7 5.33 C9.71 5.48, 9.71 5.18, 9.7 5.33" stroke="#0b7285" stroke-width="1" fill="none"></path></g><g stroke-linecap="round" transform="translate(215.97705078125 223.6254119873047) rotate(0 4.8482666015625 5.329254150390625)"><path d="M0.93 2.14 C0.93 2.14, 0.93 2.14, 0.93 2.14 M0.93 2.14 C0.93 2.14, 0.93 2.14, 0.93 2.14 M0.67 8.53 C2.34 6.61, 4.01 4.69, 7.23 0.99 M0.67 8.53 C2.22 6.75, 3.77 4.97, 7.23 0.99 M4.35 10.4 C6.13 8.35, 7.92 6.29, 10.25 3.61 M4.35 10.4 C6.15 8.33, 7.96 6.25, 10.25 3.61" stroke="#ced4da" stroke-width="0.5" fill="none"></path><path d="M9.7 5.33 C9.7 5.64, 9.67 5.95, 9.62 6.25 C9.57 6.56, 9.5 6.86, 9.4 7.15 C9.31 7.44, 9.19 7.73, 9.05 7.99 C8.91 8.26, 8.74 8.52, 8.56 8.75 C8.38 8.99, 8.18 9.21, 7.96 9.41 C7.75 9.61, 7.52 9.79, 7.27 9.94 C7.03 10.1, 6.77 10.23, 6.51 10.34 C6.24 10.44, 5.97 10.52, 5.69 10.58 C5.41 10.63, 5.13 10.66, 4.85 10.66 C4.57 10.66, 4.28 10.63, 4.01 10.58 C3.73 10.52, 3.45 10.44, 3.19 10.34 C2.93 10.23, 2.67 10.1, 2.42 9.94 C2.18 9.79, 1.95 9.61, 1.73 9.41 C1.52 9.21, 1.31 8.99, 1.13 8.75 C0.95 8.52, 0.79 8.26, 0.65 7.99 C0.51 7.73, 0.39 7.44, 0.29 7.15 C0.2 6.86, 0.12 6.56, 0.07 6.25 C0.02 5.95, 0 5.64, 0 5.33 C0 5.02, 0.02 4.71, 0.07 4.4 C0.12 4.1, 0.2 3.8, 0.29 3.51 C0.39 3.22, 0.51 2.93, 0.65 2.66 C0.79 2.4, 0.95 2.14, 1.13 1.9 C1.31 1.67, 1.52 1.45, 1.73 1.25 C1.95 1.05, 2.18 0.87, 2.42 0.71 C2.67 0.56, 2.93 0.43, 3.19 0.32 C3.45 0.22, 3.73 0.13, 4.01 0.08 C4.28 0.03, 4.57 0, 4.85 0 C5.13 0, 5.41 0.03, 5.69 0.08 C5.97 0.13, 6.24 0.22, 6.51 0.32 C6.77 0.43, 7.03 0.56, 7.27 0.71 C7.52 0.87, 7.75 1.05, 7.96 1.25 C8.18 1.45, 8.38 1.67, 8.56 1.9 C8.74 2.14, 8.91 2.4, 9.05 2.66 C9.19 2.93, 9.31 3.22, 9.4 3.51 C9.5 3.8, 9.57 4.1, 9.62 4.4 C9.67 4.71, 9.68 5.18, 9.7 5.33 C9.71 5.48, 9.71 5.18, 9.7 5.33" stroke="#0b7285" stroke-width="1" fill="none"></path></g><g stroke-linecap="round" transform="translate(347.87005615234375 349.8695526123047) rotate(0 4.8482666015625 5.329254150390625)"><path d="M0.93 2.14 C0.93 2.14, 0.93 2.14, 0.93 2.14 M0.93 2.14 C0.93 2.14, 0.93 2.14, 0.93 2.14 M0.67 8.53 C2.27 6.7, 3.86 4.86, 7.23 0.99 M0.67 8.53 C2.19 6.78, 3.71 5.03, 7.23 0.99 M4.35 10.4 C6.68 7.72, 9.02 5.03, 10.25 3.61 M4.35 10.4 C6.56 7.85, 8.78 5.3, 10.25 3.61" stroke="#ced4da" stroke-width="0.5" fill="none"></path><path d="M9.7 5.33 C9.7 5.64, 9.67 5.95, 9.62 6.25 C9.57 6.56, 9.5 6.86, 9.4 7.15 C9.31 7.44, 9.19 7.73, 9.05 7.99 C8.91 8.26, 8.74 8.52, 8.56 8.75 C8.38 8.99, 8.18 9.21, 7.96 9.41 C7.75 9.61, 7.52 9.79, 7.27 9.94 C7.03 10.1, 6.77 10.23, 6.51 10.34 C6.24 10.44, 5.97 10.52, 5.69 10.58 C5.41 10.63, 5.13 10.66, 4.85 10.66 C4.57 10.66, 4.28 10.63, 4.01 10.58 C3.73 10.52, 3.45 10.44, 3.19 10.34 C2.93 10.23, 2.67 10.1, 2.42 9.94 C2.18 9.79, 1.95 9.61, 1.73 9.41 C1.52 9.21, 1.31 8.99, 1.13 8.75 C0.95 8.52, 0.79 8.26, 0.65 7.99 C0.51 7.73, 0.39 7.44, 0.29 7.15 C0.2 6.86, 0.12 6.56, 0.07 6.25 C0.02 5.95, 0 5.64, 0 5.33 C0 5.02, 0.02 4.71, 0.07 4.4 C0.12 4.1, 0.2 3.8, 0.29 3.51 C0.39 3.22, 0.51 2.93, 0.65 2.66 C0.79 2.4, 0.95 2.14, 1.13 1.9 C1.31 1.67, 1.52 1.45, 1.73 1.25 C1.95 1.05, 2.18 0.87, 2.42 0.71 C2.67 0.56, 2.93 0.43, 3.19 0.32 C3.45 0.22, 3.73 0.13, 4.01 0.08 C4.28 0.03, 4.57 0, 4.85 0 C5.13 0, 5.41 0.03, 5.69 0.08 C5.97 0.13, 6.24 0.22, 6.51 0.32 C6.77 0.43, 7.03 0.56, 7.27 0.71 C7.52 0.87, 7.75 1.05, 7.96 1.25 C8.18 1.45, 8.38 1.67, 8.56 1.9 C8.74 2.14, 8.91 2.4, 9.05 2.66 C9.19 2.93, 9.31 3.22, 9.4 3.51 C9.5 3.8, 9.57 4.1, 9.62 4.4 C9.67 4.71, 9.68 5.18, 9.7 5.33 C9.71 5.48, 9.71 5.18, 9.7 5.33" stroke="#0b7285" stroke-width="1" fill="none"></path></g><g stroke-linecap="round" transform="translate(218.05517578125 350.82322692871094) rotate(0 4.8482666015625 5.329254150390625)"><path d="M0.93 2.14 C0.93 2.14, 0.93 2.14, 0.93 2.14 M0.93 2.14 C0.93 2.14, 0.93 2.14, 0.93 2.14 M0.67 8.53 C2.45 6.48, 4.24 4.43, 7.23 0.99 M0.67 8.53 C2.97 5.89, 5.27 3.24, 7.23 0.99 M4.35 10.4 C5.8 8.73, 7.25 7.06, 10.25 3.61 M4.35 10.4 C6.6 7.81, 8.86 5.21, 10.25 3.61" stroke="#ced4da" stroke-width="0.5" fill="none"></path><path d="M9.7 5.33 C9.7 5.64, 9.67 5.95, 9.62 6.25 C9.57 6.56, 9.5 6.86, 9.4 7.15 C9.31 7.44, 9.19 7.73, 9.05 7.99 C8.91 8.26, 8.74 8.52, 8.56 8.75 C8.38 8.99, 8.18 9.21, 7.96 9.41 C7.75 9.61, 7.52 9.79, 7.27 9.94 C7.03 10.1, 6.77 10.23, 6.51 10.34 C6.24 10.44, 5.97 10.52, 5.69 10.58 C5.41 10.63, 5.13 10.66, 4.85 10.66 C4.57 10.66, 4.28 10.63, 4.01 10.58 C3.73 10.52, 3.45 10.44, 3.19 10.34 C2.93 10.23, 2.67 10.1, 2.42 9.94 C2.18 9.79, 1.95 9.61, 1.73 9.41 C1.52 9.21, 1.31 8.99, 1.13 8.75 C0.95 8.52, 0.79 8.26, 0.65 7.99 C0.51 7.73, 0.39 7.44, 0.29 7.15 C0.2 6.86, 0.12 6.56, 0.07 6.25 C0.02 5.95, 0 5.64, 0 5.33 C0 5.02, 0.02 4.71, 0.07 4.4 C0.12 4.1, 0.2 3.8, 0.29 3.51 C0.39 3.22, 0.51 2.93, 0.65 2.66 C0.79 2.4, 0.95 2.14, 1.13 1.9 C1.31 1.67, 1.52 1.45, 1.73 1.25 C1.95 1.05, 2.18 0.87, 2.42 0.71 C2.67 0.56, 2.93 0.43, 3.19 0.32 C3.45 0.22, 3.73 0.13, 4.01 0.08 C4.28 0.03, 4.57 0, 4.85 0 C5.13 0, 5.41 0.03, 5.69 0.08 C5.97 0.13, 6.24 0.22, 6.51 0.32 C6.77 0.43, 7.03 0.56, 7.27 0.71 C7.52 0.87, 7.75 1.05, 7.96 1.25 C8.18 1.45, 8.38 1.67, 8.56 1.9 C8.74 2.14, 8.91 2.4, 9.05 2.66 C9.19 2.93, 9.31 3.22, 9.4 3.51 C9.5 3.8, 9.57 4.1, 9.62 4.4 C9.67 4.71, 9.68 5.18, 9.7 5.33 C9.71 5.48, 9.71 5.18, 9.7 5.33" stroke="#0b7285" stroke-width="1" fill="none"></path></g><g stroke-linecap="round"><g transform="translate(528.5816650390625 38.4144287109375) rotate(0 -74.113525390625 34.77249145507813)"><path d="M0 0 C-24.7 11.59, -123.52 57.95, -148.23 69.54 M0 0 C-24.7 11.59, -123.52 57.95, -148.23 69.54" stroke="#0b7285" stroke-width="1" fill="none"></path></g><g transform="translate(528.5816650390625 38.4144287109375) rotate(0 -74.113525390625 34.77249145507813)"><path d="M-127.06 48.28 C-132.27 53.51, -137.48 58.75, -148.23 69.54 M-127.06 48.28 C-135.15 56.41, -143.24 64.53, -148.23 69.54" stroke="#0b7285" stroke-width="1" fill="none"></path></g><g transform="translate(528.5816650390625 38.4144287109375) rotate(0 -74.113525390625 34.77249145507813)"><path d="M-118.35 66.86 C-125.7 67.52, -133.05 68.18, -148.23 69.54 M-118.35 66.86 C-129.76 67.89, -141.18 68.91, -148.23 69.54" stroke="#0b7285" stroke-width="1" fill="none"></path></g></g><g transform="translate(542.18701171875 10) rotate(0 126 37.5)"><text x="0" y="18" font-family="Virgil, Segoe UI Emoji" font-size="20px" fill="#0b7285" text-anchor="start" style="white-space: pre;" direction="ltr">List of boxes </text><text x="0" y="43" font-family="Virgil, Segoe UI Emoji" font-size="20px" fill="#0b7285" text-anchor="start" style="white-space: pre;" direction="ltr">associated with the grid </text><text x="0" y="68" font-family="Virgil, Segoe UI Emoji" font-size="20px" fill="#0b7285" text-anchor="start" style="white-space: pre;" direction="ltr">cell</text></g><g stroke-linecap="round"><g transform="translate(432.2676834061698 540.1023101806641) rotate(0 140.57166366800885 -102.07672119140625)"><path d="M0 0 C46.86 -34.03, 234.29 -170.13, 281.14 -204.15 M0 0 C46.86 -34.03, 234.29 -170.13, 281.14 -204.15" stroke="#0b7285" stroke-width="1" fill="none"></path></g><g transform="translate(432.2676834061698 540.1023101806641) rotate(0 140.57166366800885 -102.07672119140625)"><path d="M264.36 -179.29 C268.94 -186.08, 273.53 -192.87, 281.14 -204.15 M264.36 -179.29 C268.3 -185.13, 272.25 -190.97, 281.14 -204.15" stroke="#0b7285" stroke-width="1" fill="none"></path></g><g transform="translate(432.2676834061698 540.1023101806641) rotate(0 140.57166366800885 -102.07672119140625)"><path d="M252.3 -195.89 C260.18 -198.15, 268.05 -200.4, 281.14 -204.15 M252.3 -195.89 C259.08 -197.83, 265.86 -199.77, 281.14 -204.15" stroke="#0b7285" stroke-width="1" fill="none"></path></g></g><g transform="translate(339.8002014160156 553.0749664306641) rotate(0 156 37.5)"><text x="0" y="18" font-family="Virgil, Segoe UI Emoji" font-size="20px" fill="#0b7285" text-anchor="start" style="white-space: pre;" direction="ltr">Here's the problem, we need to </text><text x="0" y="43" font-family="Virgil, Segoe UI Emoji" font-size="20px" fill="#0b7285" text-anchor="start" style="white-space: pre;" direction="ltr">check all the cells in which the </text><text x="0" y="68" font-family="Virgil, Segoe UI Emoji" font-size="20px" fill="#0b7285" text-anchor="start" style="white-space: pre;" direction="ltr">box is, for collisions</text></g><g transform="translate(176.398681640625 205.5072784423828) rotate(0 32 12.5)"><text x="0" y="18" font-family="Virgil, Segoe UI Emoji" font-size="20px" fill="#0b7285" text-anchor="start" style="white-space: pre;" direction="ltr">0111001</text></g><g stroke-linecap="round"><g transform="translate(78.59127807617188 294.23036193847656) rotate(0 53.442108154296875 -28.547683715820312)"><path d="M0 0 C17.81 -9.52, 89.07 -47.58, 106.88 -57.1 M0 0 C17.81 -9.52, 89.07 -47.58, 106.88 -57.1" stroke="#0b7285" stroke-width="1" fill="none"></path></g><g transform="translate(78.59127807617188 294.23036193847656) rotate(0 53.442108154296875 -28.547683715820312)"><path d="M86.85 -34.76 C91.55 -40, 96.25 -45.23, 106.88 -57.1 M86.85 -34.76 C94.77 -43.59, 102.69 -52.42, 106.88 -57.1" stroke="#0b7285" stroke-width="1" fill="none"></path></g><g transform="translate(78.59127807617188 294.23036193847656) rotate(0 53.442108154296875 -28.547683715820312)"><path d="M77.18 -52.86 C84.15 -53.86, 91.11 -54.85, 106.88 -57.1 M77.18 -52.86 C88.93 -54.54, 100.67 -56.21, 106.88 -57.1" stroke="#0b7285" stroke-width="1" fill="none"></path></g></g><g transform="translate(10 310.3461456298828) rotate(0 58 12.5)"><text x="0" y="18" font-family="Virgil, Segoe UI Emoji" font-size="20px" fill="#0b7285" text-anchor="start" style="white-space: pre;" direction="ltr">Hilbert code</text></g><g stroke-linecap="round"><g transform="translate(728.4892578125 242.10001699437686) rotate(0 -151.79777923362917 9.877001155418498)"><path d="M0 0 C-50.6 3.29, -253 16.46, -303.6 19.75 M0 0 C-50.6 3.29, -253 16.46, -303.6 19.75" stroke="#0b7285" stroke-width="1" fill="none"></path></g><g transform="translate(728.4892578125 242.10001699437686) rotate(0 -151.79777923362917 9.877001155418498)"><path d="M-276.13 7.68 C-284.67 11.44, -293.21 15.19, -303.6 19.75 M-276.13 7.68 C-282.57 10.51, -289.01 13.34, -303.6 19.75" stroke="#0b7285" stroke-width="1" fill="none"></path></g><g transform="translate(728.4892578125 242.10001699437686) rotate(0 -151.79777923362917 9.877001155418498)"><path d="M-274.8 28.16 C-283.75 25.55, -292.71 22.93, -303.6 19.75 M-274.8 28.16 C-281.55 26.19, -288.3 24.22, -303.6 19.75" stroke="#0b7285" stroke-width="1" fill="none"></path></g></g><g transform="translate(742.8557739257812 216.5629425048828) rotate(0 57.5 25)"><text x="0" y="18" font-family="Virgil, Segoe UI Emoji" font-size="20px" fill="#0b7285" text-anchor="start" style="white-space: pre;" direction="ltr">Hilbert code</text><text x="0" y="43" font-family="Virgil, Segoe UI Emoji" font-size="20px" fill="#0b7285" text-anchor="start" style="white-space: pre;" direction="ltr">of the box</text></g></svg>